<svg xmlns:xlink="http://www.w3.org/1999/xlink" xmlns="http://www.w3.org/2000/svg" class="css-ze2te4 css-qd6ojx" viewBox="0 0 111.1111111111111 114.1745846318209" width="111.1111111111111"  height="114.1745846318209" ><g transform="translate(-0.008915983605412835, -0.11289604966488034) scale(1.4354604195050717)" class="css-1e98oqk" fill="#FFFFFF"><title xmlns="http://www.w3.org/2000/svg">tattoo</title><g xmlns="http://www.w3.org/2000/svg" data-name="Layer 2" fill="#FFFFFF"><g fill="#FFFFFF"><path d="M77.27,55.35a27,27,0,0,0-.85-10,.49.49,0,0,0,0-.11,134.27,134.27,0,0,0-4.86-14.9C68.21,21.44,66.6,14.2,67,9.88a.59.59,0,0,0-.3-.6.64.64,0,0,0-.74.13c-.89.73-3.81,5.8-1,15.69a1.31,1.31,0,0,0-.27.21c-1.14,1.14-.93,4.85.6,11a2.44,2.44,0,0,0-1.23.81c-.91,1.1-1.07,3-.48,5.71a1.75,1.75,0,0,0-1.15.3c-.71.5-1,1.52-.9,3.09a2.25,2.25,0,0,0-1.75.17,2.79,2.79,0,0,0-1.07,2.49,3.74,3.74,0,0,0-2.7,1.18,3.21,3.21,0,0,0-.69,2c-.3-.4-.54-.71-.68-.88-.79-1-6.45-6.81-9.35-7.63-1-2.74-9.39-27-7.24-43.06a.5.5,0,0,0-.4-.56.5.5,0,0,0-.58.38c0,.14-3.27,14.22-.47,33.57a.9.9,0,0,0-.27.11c-.57.33-.78,1.22-.65,2.81-1.66-1.67-6.79-8.12-21.42-33a.5.5,0,0,0-.89.45c.12.28,12,27.88,21.59,40.4a30.25,30.25,0,0,1,2.87,3.52A26.84,26.84,0,0,0,40,60.69a2.55,2.55,0,0,0-.79,1c-2.13-1-4.42.37-5.23,1a7.33,7.33,0,0,0-8.2-.14c-3.38-1.75-6.07-2.28-8-1.58a3.53,3.53,0,0,0-1.67,1.21C6.54,58.26.52,61.32.27,61.46a.5.5,0,0,0,.21.94c11.42.57,18,5,24.91,9.61a85.26,85.26,0,0,0,9.1,5.55,16.42,16.42,0,0,0,7.44,1.9,14.86,14.86,0,0,0,10.24-4.32c2,2.2,14.8,4,18.08,2.86,2.43-.83,5,1.21,5,1.23a.5.5,0,0,0,.77-.6L73.81,74a4.11,4.11,0,0,0,.32-1.93c-.14-2.89-3.44-6.31-6.49-8.22C70.13,62.84,76.7,59.65,77.27,55.35ZM65.95,11.21c0,4.49,1.6,11.31,4.65,19.46a144.62,144.62,0,0,1,4.62,14,1.63,1.63,0,0,0-1,.2,1.76,1.76,0,0,0-.67.72L66.09,25.3C63.84,17.8,65,13.15,65.95,11.21Zm-.61,14.93,7.81,21.2c0,.25,0,.51,0,.79A8.37,8.37,0,0,1,72,53l-5.6-16.35C64.45,28.88,65,26.73,65.34,26.14Zm-.49,11.67a1.41,1.41,0,0,1,.76-.5l5.69,16.61a4,4,0,0,1-.95.75c-.43.22-.83.45-1.2.69l-4.38-12C63.88,40,64.32,38.47,64.85,37.81ZM63,44a1,1,0,0,1,.86-.05l4.4,12a10.66,10.66,0,0,0-1.75,1.63L62.64,46.91C62.35,44.75,62.82,44.15,63,44Zm-2.7,3.29a1.68,1.68,0,0,1,1.41.1l4.1,11.17a7.37,7.37,0,0,0-1.2,3.82l-.29-.18-4.6-12.86C59.72,48.25,59.92,47.54,60.34,47.29Zm-3.52,3.45a2.83,2.83,0,0,1,2.08-.82l4,11.06a63.38,63.38,0,0,1-6.27-7.23A3.31,3.31,0,0,1,56.82,50.74Zm-18-1.08a31.54,31.54,0,0,1,1.79,3.2,28.19,28.19,0,0,0,4.25,6.58,2.7,2.7,0,0,0-1.37,1.28,4.35,4.35,0,0,0-2.61-.43A25.72,25.72,0,0,1,38.83,49.66Zm7.08,10.58a6.26,6.26,0,0,1,3.39,1.4h0l0,0c.06,0,6,3.16,7.8,5.95a14.11,14.11,0,0,0-3.24,1c-1.87-2.3-8-6.42-9.54-7.41a1.7,1.7,0,0,1,.91-.86,1.89,1.89,0,0,1,.59-.1Zm12.3,7.24c-1.49-2.78-6.61-5.72-8-6.5a.94.94,0,0,1,.45-.46c.42-.19,1.47-.29,3.8,1.29a33.51,33.51,0,0,1,6.46,5.69A12.76,12.76,0,0,0,58.21,67.49Zm-7.3,2.88c-2.09-2.84-9.24-7.22-10.86-8.2a1.49,1.49,0,0,1,.69-.78c.63-.32,1.59-.16,2.79.46.32.21,7.35,4.79,9.47,7.22A16.47,16.47,0,0,0,50.91,70.36ZM39.16,62.8h0l0,0C39.29,62.88,48,68,50.12,71c-.47.38-.93.79-1.4,1.25a5.11,5.11,0,0,1-1.21.88L34.8,63.24C35.7,62.65,37.6,61.7,39.16,62.8Zm-5.48.83,12.79,9.93a8.72,8.72,0,0,1-4.22.34L26.68,63.07A6.41,6.41,0,0,1,33.68,63.63ZM18.13,61.81c1.17-.41,3.4-.45,7.4,1.67L40.35,73.79a5.73,5.73,0,0,0-2.82.9C33.08,69.5,20,63.75,17,62.5A2.67,2.67,0,0,1,18.13,61.81ZM34.94,76.66a84.8,84.8,0,0,1-9-5.48C19.69,67,13.25,62.68,3,61.59c2.56-.57,7.14-.89,13.05,1.59h0c.16.07,15.88,6.59,20.66,12.13A5.32,5.32,0,0,0,35.58,77Zm1.57.71h0S37.73,74.2,42,74.87c4.92.78,7.37-1.86,7.45-2A16.32,16.32,0,0,1,54,69.66h0a13.09,13.09,0,0,1,3.86-1.13h0l.12,0a11.82,11.82,0,0,1,2.26,0c-2.24,1-6.18,2.88-8.22,5.29h0A13.43,13.43,0,0,1,36.5,77.36Zm37.85.15A5.85,5.85,0,0,0,69.92,77c-3,1-13.34-.52-16.4-2.14-.6-.32-.67-.51-.66-.51h0c2.54-3,8.57-5.33,9.37-5.62,4.33.13,5.93,1.21,6.51,2.09a2.05,2.05,0,0,1,.34,1.33,1.63,1.63,0,0,0-.86.17,1.35,1.35,0,0,0-.82,1.39,2.34,2.34,0,0,0,1.82,1.86,6.39,6.39,0,0,0,1.5.18,3.67,3.67,0,0,0,2.35-.73l.08-.08Zm-1.22-5.34a2.43,2.43,0,0,1-.71,2.11,3.58,3.58,0,0,1-3,.35,1.36,1.36,0,0,1-1.07-1,.36.36,0,0,1,.25-.39c.28-.13.4-.08.45-.06l0,0a1.22,1.22,0,0,1,.39.73.5.5,0,0,0,1-.16A2.52,2.52,0,0,0,70,72.7a3.07,3.07,0,0,0-.42-2.37c-1-1.56-3.44-2.41-7.18-2.55A33,33,0,0,0,55,61c-2.09-1.41-3.7-1.86-4.78-1.36a1.9,1.9,0,0,0-.88.84,6.72,6.72,0,0,0-3.26-1.22,25.46,25.46,0,0,1-4.54-6.82,33.42,33.42,0,0,0-5.75-8.35C29.55,35.93,22.28,21.22,18,12c6.85,11.38,15.13,24.51,17.9,26.19l.37,2.1a.5.5,0,0,0,.49.41h.09a.5.5,0,0,0,.4-.58l-.41-2.3h0c-.36-2.5,0-2.92,0-2.93l.07,0c1.73,1.91,3.61,4.31,3.65,4.91a.5.5,0,0,0,.5.46h0a.5.5,0,0,0,.46-.53c-.08-1.19-2.85-4.35-3.85-5.45a108.43,108.43,0,0,1-.87-24.71c.89,16.05,7.56,34.37,7.64,34.59a.5.5,0,0,0,.39.32c2.21.37,7.9,5.94,9,7.34.16.19.43.56.79,1l1,1.35h0c2.09,2.73,5.36,6.8,7.91,8.63l0,0a6.06,6.06,0,0,0,1.36.76C68.45,64.94,73,69.28,73.13,72.17Zm-6.6-8.9c-.3-.15-.59-.29-.87-.4-.08-1,0-4.64,5.13-7.3.14-.07,3.54-1.83,3.34-7.47-.06-1.82.38-2.29.58-2.4a.9.9,0,0,1,.78,0,24.75,24.75,0,0,1,.78,9.49C75.71,59.47,67.84,62.76,66.54,63.27Z" fill="#FFFFFF"></path></g></g></g></svg>